# Exported from Wings 3D 1.5.2
mtllib stick.mtl
o Cylinder1
#48 vertices, 34 faces
v -0.64553114 0.77078020 1.21698594
v -0.66958520 0.64991059 1.21322969
v -0.73808539 0.54744228 1.21004530
v -0.84060317 0.47897515 1.20791756
v -0.96153114 0.45493269 1.20717039
v -1.08245910 0.47897515 1.20791756
v -1.18497688 0.54744228 1.21004530
v -1.25347707 0.64991059 1.21322969
v -1.27753114 0.77078020 1.21698594
v -1.25347707 0.89164982 1.22074219
v -1.18497688 0.99411813 1.22392658
v -1.08245910 1.06258526 1.22605433
v -0.96153114 1.08662772 1.22680149
v -0.84060317 1.06258526 1.22605433
v -0.73808539 0.99411813 1.22392658
v -0.66958520 0.89164982 1.22074219
v -0.64553114 0.79041130 0.58529090
v -0.66958520 0.66954169 0.58153466
v -0.73808539 0.56707338 0.57835026
v -0.84060317 0.49860624 0.57622252
v -0.96153114 0.47456378 0.57547535
v -1.08245910 0.49860624 0.57622252
v -1.18497688 0.56707338 0.57835026
v -1.25347707 0.66954169 0.58153466
v -1.27753114 0.79041130 0.58529090
v -1.25347707 0.91128091 0.58904715
v -1.18497688 1.01374922 0.59223154
v -1.08245910 1.08221636 0.59435929
v -0.96153114 1.10625882 0.59510645
v -0.84060317 1.08221636 0.59435929
v -0.73808539 1.01374922 0.59223154
v -0.66958520 0.91128091 0.58904715
v -0.66958520 0.62091281 2.14632841
v -0.64553114 0.74178243 2.15008466
v -0.66958520 0.86265204 2.15384090
v -0.73808539 0.96512035 2.15702530
v -0.84060317 1.03358748 2.15915304
v -0.96153114 1.05762995 2.15990020
v -1.08245910 1.03358748 2.15915304
v -1.18497688 0.96512035 2.15702530
v -1.25347707 0.86265204 2.15384090
v -1.27753114 0.74178243 2.15008466
v -1.25347707 0.62091281 2.14632841
v -1.18497688 0.51844450 2.14314401
v -1.08245910 0.44997737 2.14101627
v -0.96153114 0.42593491 2.14026911
v -0.84060317 0.44997737 2.14101627
v -0.73808539 0.51844450 2.14314401
vn 1.00000000 3.7496625e-16 5.5493236e-17
vn 0.92387953 -0.38249877 -1.1886861e-2
vn 0.70710678 -0.70676558 -2.1964054e-2
vn 0.38268343 -0.92343373 -2.8697420e-2
vn 1.3442186e-16 -0.99951746 -3.1061864e-2
vn -0.38268343 -0.92343373 -2.8697420e-2
vn -0.70710678 -0.70676558 -2.1964054e-2
vn -0.92387953 -0.38249877 -1.1886861e-2
vn -1.00000000 -2.2639472e-16 -3.6479617e-17
vn -0.92387953 0.38249877 1.1886861e-2
vn -0.70710678 0.70676558 2.1964054e-2
vn -0.38268343 0.92343373 2.8697420e-2
vn -4.6693910e-16 0.99951746 3.1061864e-2
vn 0.38268343 0.92343373 2.8697420e-2
vn 0.70710678 0.70676558 2.1964054e-2
vn 0.92387953 0.38249877 1.1886861e-2
vn 0.89090915 1.4107725e-2 -0.45396239
vn 0.82309273 -0.32666393 -0.46455250
vn 0.62996790 -0.61555620 -0.47353037
vn 0.34093617 -0.80858784 -0.47952918
vn 1.6387891e-16 -0.87637153 -0.48163569
vn -0.34093617 -0.80858784 -0.47952918
vn -0.62996790 -0.61555620 -0.47353037
vn -0.82309273 -0.32666393 -0.46455250
vn -0.89090915 1.4107725e-2 -0.45396239
vn -0.82309273 0.35487938 -0.44337228
vn -0.62996790 0.64377165 -0.43439441
vn -0.34093617 0.83680329 -0.42839560
vn -4.6642460e-16 0.90458698 -0.42628909
vn 0.34093617 0.83680329 -0.42839560
vn 0.62996790 0.64377165 -0.43439441
vn 0.82309273 0.35487938 -0.44337228
vn 0.82309273 -0.35487938 0.44337228
vn 0.89090915 -1.4107725e-2 0.45396239
vn 0.82309273 0.32666393 0.46455250
vn 0.62996790 0.61555620 0.47353037
vn 0.34093617 0.80858784 0.47952918
vn -3.6557604e-16 0.87637153 0.48163569
vn -0.34093617 0.80858784 0.47952918
vn -0.62996790 0.61555620 0.47353037
vn -0.82309273 0.32666393 0.46455250
vn -0.89090915 -1.4107725e-2 0.45396239
vn -0.82309273 -0.35487938 0.44337228
vn -0.62996790 -0.64377165 0.43439441
vn -0.34093617 -0.83680329 0.42839560
vn 7.5636422e-17 -0.90458698 0.42628909
vn 0.34093617 -0.83680329 0.42839560
vn 0.62996790 -0.64377165 0.43439441
g Cylinder1_default
usemtl default
s 1
f 1//1 17//17 32//32 16//16
f 1//1 34//34 33//33 2//2
f 2//2 18//18 17//17 1//1
f 2//2 33//33 48//48 3//3
f 3//3 19//19 18//18 2//2
f 3//3 48//48 47//47 4//4
f 4//4 20//20 19//19 3//3
f 4//4 47//47 46//46 5//5
f 5//5 21//21 20//20 4//4
f 5//5 46//46 45//45 6//6
f 6//6 22//22 21//21 5//5
f 6//6 45//45 44//44 7//7
f 7//7 23//23 22//22 6//6
f 7//7 44//44 43//43 8//8
f 8//8 24//24 23//23 7//7
f 8//8 43//43 42//42 9//9
f 9//9 25//25 24//24 8//8
f 9//9 42//42 41//41 10//10
f 10//10 26//26 25//25 9//9
f 10//10 41//41 40//40 11//11
f 11//11 27//27 26//26 10//10
f 11//11 40//40 39//39 12//12
f 12//12 28//28 27//27 11//11
f 12//12 39//39 38//38 13//13
f 13//13 29//29 28//28 12//12
f 13//13 38//38 37//37 14//14
f 14//14 30//30 29//29 13//13
f 14//14 37//37 36//36 15//15
f 15//15 31//31 30//30 14//14
f 15//15 36//36 35//35 16//16
f 16//16 32//32 31//31 15//15
f 16//16 35//35 34//34 1//1
f 18//18 19//19 20//20 21//21 22//22 23//23 24//24 25//25 26//26 27//27 28//28 29//29 30//30 31//31 32//32 17//17
f 34//34 35//35 36//36 37//37 38//38 39//39 40//40 41//41 42//42 43//43 44//44 45//45 46//46 47//47 48//48 33//33
